P2
512 6
255
0 0 0 0 0 0 0 0 0 0 0 0 0 0 0 0 0 0 0 0 0 0 0 0 0 0 0 0 0 0 0 0 0 0 0 0 0 0 0 0 0 0 0 0 0 0 0 0 0 0 0 0 0 0 0 0 0 0 0 0 0 0 0 0 0 0 0 0 0 0 0 0 0 0 0 0 0 0 0 0 0 0 0 0 0 0 0 0 0 0 0 0 0 0 0 0 0 0 0 0 0 0 0 0 0 0 0 0 0 0 0 0 0 0 0 0 0 0 0 0 0 0 0 0 0 0 0 0 0 0 0 0 0 0 0 0 0 0 0 0 0 0 0 0 0 0 0 0 0 0 0 0 0 0 0 0 0 0 0 0 0 0 0 0 0 0 0 0 0 0 0 0 0 0 0 0 0 0 0 0 0 0 0 0 0 0 0 0 0 0 0 0 0 0 0 0 0 0 0 120 120 120 120 120 120 120 120 120 120 2 2 2 2 2 0 0 0 0 0 206 206 206 206 206 206 206 206 0 0 119 119 119 119 119 0 0 0 0 0 113 113 113 113 113 113 0 0 0 0 254 254 254 254 254 0 0 0 0 0 71 71 71 71 71 71 71 71 71 71 0 0 0 0 0 0 0 0 0 0 0 0 0 0 0 0 0 0 0 0 0 0 0 0 0 0 0 0 0 0 28 28 28 28 28 28 28 28 28 28 200 200 200 200 200 0 0 0 0 0 156 156 156 156 156 156 156 156 0 0 77 77 77 77 77 0 0 0 0 0 97 97 97 97 97 97 0 0 0 0 139 139 139 139 139 0 0 0 0 0 125 125 125 125 125 125 125 125 125 125 0 0 0 0 0 0 0 0 0 0 0 0 0 0 0 0 0 0 0 0 0 0 0 0 0 0 0 0 0 0 139 139 139 139 139 139 139 139 139 139 203 203 203 203 203 0 0 0 0 0 69 69 69 69 69 69 69 69 0 0 152 152 152 152 152 0 0 0 0 0 110 110 110 110 110 110 0 0 0 0 210 210 210 210 210 0 0 0 0 0 13 13 13 13 13 13 13 13 13 13 0 0 0 0 0 0 0 0 0 0 0 0 0 0 0 0 0 0 0 0 0 0 0 0 0 0 0 0 0 0 0 0 0 0 0 0 0 0 0 0 0 0 0 
0 0 0 0 0 0 0 0 0 0 0 0 0 0 0 0 0 0 0 0 0 0 0 0 0 0 0 0 0 0 0 0 0 0 0 0 0 0 0 0 0 0 0 0 0 0 0 0 0 0 0 0 0 0 0 0 0 0 0 0 0 0 0 0 0 0 0 0 0 0 0 0 0 0 0 0 0 0 0 0 0 0 0 0 0 0 0 0 0 0 0 0 0 0 0 0 0 0 0 0 0 0 0 0 0 0 0 0 0 0 0 0 0 0 0 0 0 0 0 0 0 0 0 0 0 0 0 0 0 0 0 0 0 0 0 0 0 0 0 0 0 0 0 0 0 0 0 0 0 0 0 0 0 0 0 0 0 0 0 0 0 0 0 0 0 0 0 0 0 0 0 0 0 0 0 0 0 0 0 0 0 0 0 0 0 0 0 0 0 0 0 0 0 0 0 0 0 0 0 15 15 15 15 15 15 15 15 15 15 33 33 33 33 33 0 0 0 0 0 44 44 44 44 44 44 44 44 0 0 13 13 13 13 13 0 0 0 0 0 97 97 97 97 97 97 0 0 0 0 124 124 124 124 124 0 0 0 0 0 141 141 141 141 141 141 141 141 141 141 0 0 0 0 0 0 0 0 0 0 0 0 0 0 0 0 0 0 0 0 0 0 0 0 0 0 0 0 0 0 163 163 163 163 163 163 163 163 163 163 149 149 149 149 149 0 0 0 0 0 91 91 91 91 91 91 91 91 0 0 244 244 244 244 244 0 0 0 0 0 78 78 78 78 78 78 0 0 0 0 62 62 62 62 62 0 0 0 0 0 149 149 149 149 149 149 149 149 149 149 0 0 0 0 0 0 0 0 0 0 0 0 0 0 0 0 0 0 0 0 0 0 0 0 0 0 0 0 0 0 112 112 112 112 112 112 112 112 112 112 124 124 124 124 124 0 0 0 0 0 178 178 178 178 178 178 178 178 0 0 133 133 133 133 133 0 0 0 0 0 162 162 162 162 162 162 0 0 0 0 147 147 147 147 147 0 0 0 0 0 101 101 101 101 101 101 101 101 101 101 0 0 0 0 0 0 0 0 0 0 0 0 0 0 0 0 0 0 0 0 0 0 0 0 0 0 0 0 0 0 0 0 0 0 0 0 0 0 0 0 0 0 0 
0 0 0 0 0 0 0 0 0 0 0 0 0 0 0 0 0 0 0 0 0 0 0 0 0 0 0 0 0 0 0 0 0 0 0 0 0 0 0 0 0 0 0 0 0 0 0 0 0 0 0 0 0 0 0 0 0 0 0 0 0 0 0 0 0 0 0 0 0 0 0 0 0 0 0 0 0 0 0 0 0 0 0 0 0 0 0 0 0 0 0 0 0 0 0 0 0 0 0 0 0 0 0 0 0 0 0 0 0 0 0 0 0 0 0 0 0 0 0 0 0 0 0 0 0 0 0 0 0 0 0 0 0 0 0 0 0 0 0 0 0 0 0 0 0 0 0 0 0 0 0 0 0 0 0 0 0 0 0 0 0 0 0 0 0 0 0 0 0 0 0 0 0 0 0 0 0 0 0 0 0 0 0 0 0 0 0 0 0 0 0 0 0 0 0 0 0 0 0 73 73 73 73 73 73 73 73 73 73 67 67 67 67 67 0 0 0 0 0 21 21 21 21 21 21 21 21 0 0 78 78 78 78 78 0 0 0 0 0 19 19 19 19 19 19 0 0 0 0 131 131 131 131 131 0 0 0 0 0 185 185 185 185 185 185 185 185 185 185 0 0 0 0 0 0 0 0 0 0 0 0 0 0 0 0 0 0 0 0 0 0 0 0 0 0 0 0 0 0 12 12 12 12 12 12 12 12 12 12 174 174 174 174 174 0 0 0 0 0 159 159 159 159 159 159 159 159 0 0 254 254 254 254 254 0 0 0 0 0 9 9 9 9 9 9 0 0 0 0 37 37 37 37 37 0 0 0 0 0 206 206 206 206 206 206 206 206 206 206 0 0 0 0 0 0 0 0 0 0 0 0 0 0 0 0 0 0 0 0 0 0 0 0 0 0 0 0 0 0 65 65 65 65 65 65 65 65 65 65 105 105 105 105 105 0 0 0 0 0 232 232 232 232 232 232 232 232 0 0 191 191 191 191 191 0 0 0 0 0 134 134 134 134 134 134 0 0 0 0 84 84 84 84 84 0 0 0 0 0 93 93 93 93 93 93 93 93 93 93 0 0 0 0 0 0 0 0 0 0 0 0 0 0 0 0 0 0 0 0 0 0 0 0 0 0 0 0 0 0 0 0 0 0 0 0 0 0 0 0 0 0 0 
0 0 0 0 0 0 0 0 0 0 0 0 0 0 0 0 0 0 0 0 0 0 0 0 0 0 0 0 0 0 0 0 0 0 0 0 0 0 0 0 0 0 0 0 0 0 0 0 0 0 0 0 0 0 0 0 0 0 0 0 0 0 0 0 0 0 0 0 0 0 0 0 0 0 0 0 0 0 0 0 0 0 0 0 0 0 0 0 0 0 0 0 0 0 0 0 0 0 0 0 0 0 0 0 0 0 0 0 0 0 0 0 0 0 0 0 0 0 0 0 0 0 0 0 0 0 0 0 0 0 0 0 0 0 0 0 0 0 0 0 0 0 0 0 0 0 0 0 0 0 0 0 0 0 0 0 0 0 0 0 0 0 0 0 0 0 0 0 0 0 0 0 0 0 0 0 0 0 0 0 0 0 0 0 0 0 0 0 0 0 0 0 0 0 0 0 0 0 0 224 224 224 224 224 224 224 224 224 224 226 226 226 226 226 0 0 0 0 0 114 114 114 114 114 114 114 114 0 0 226 226 226 226 226 0 0 0 0 0 2 2 2 2 2 2 0 0 0 0 1 1 1 1 1 0 0 0 0 0 1 1 1 1 1 1 1 1 1 1 0 0 0 0 0 0 0 0 0 0 0 0 0 0 0 0 0 0 0 0 0 0 0 0 0 0 0 0 0 0 20 20 20 20 20 20 20 20 20 20 123 123 123 123 123 0 0 0 0 0 94 94 94 94 94 94 94 94 0 0 165 165 165 165 165 0 0 0 0 0 244 244 244 244 244 244 0 0 0 0 216 216 216 216 216 0 0 0 0 0 229 229 229 229 229 229 229 229 229 229 0 0 0 0 0 0 0 0 0 0 0 0 0 0 0 0 0 0 0 0 0 0 0 0 0 0 0 0 0 0 165 165 165 165 165 165 165 165 165 165 27 27 27 27 27 0 0 0 0 0 214 214 214 214 214 214 214 214 0 0 172 172 172 172 172 0 0 0 0 0 186 186 186 186 186 186 0 0 0 0 147 147 147 147 147 0 0 0 0 0 181 181 181 181 181 181 181 181 181 181 0 0 0 0 0 0 0 0 0 0 0 0 0 0 0 0 0 0 0 0 0 0 0 0 0 0 0 0 0 0 0 0 0 0 0 0 0 0 0 0 0 0 0 
0 0 0 0 0 0 0 0 0 0 0 0 0 0 0 0 0 0 0 0 0 0 0 0 0 0 0 0 0 0 0 0 0 0 0 0 0 0 0 0 0 0 0 0 0 0 0 0 0 0 0 0 0 0 0 0 0 0 0 0 0 0 0 0 0 0 0 0 0 0 0 0 0 0 0 0 0 0 0 0 0 0 0 0 0 0 0 0 0 0 0 0 0 0 0 0 0 0 0 0 0 0 0 0 0 0 0 0 0 0 0 0 0 0 0 0 0 0 0 0 0 0 0 0 0 0 0 0 0 0 0 0 0 0 0 0 0 0 0 0 0 0 0 0 0 0 0 0 0 0 0 0 0 0 0 0 0 0 0 0 0 0 0 0 0 0 0 0 0 0 0 0 0 0 0 0 0 0 0 0 0 0 0 0 0 0 0 0 0 0 0 0 0 0 0 0 0 0 0 212 212 212 212 212 212 212 212 212 212 253 253 253 253 253 0 0 0 0 0 196 196 196 196 196 196 196 196 0 0 202 202 202 202 202 0 0 0 0 0 47 47 47 47 47 47 0 0 0 0 117 117 117 117 117 0 0 0 0 0 97 97 97 97 97 97 97 97 97 97 0 0 0 0 0 0 0 0 0 0 0 0 0 0 0 0 0 0 0 0 0 0 0 0 0 0 0 0 0 0 187 187 187 187 187 187 187 187 187 187 252 252 252 252 252 0 0 0 0 0 151 151 151 151 151 151 151 151 0 0 107 107 107 107 107 0 0 0 0 0 20 20 20 20 20 20 0 0 0 0 214 214 214 214 214 0 0 0 0 0 93 93 93 93 93 93 93 93 93 93 0 0 0 0 0 0 0 0 0 0 0 0 0 0 0 0 0 0 0 0 0 0 0 0 0 0 0 0 0 0 33 33 33 33 33 33 33 33 33 33 15 15 15 15 15 0 0 0 0 0 252 252 252 252 252 252 252 252 0 0 203 203 203 203 203 0 0 0 0 0 62 62 62 62 62 62 0 0 0 0 81 81 81 81 81 0 0 0 0 0 110 110 110 110 110 110 110 110 110 110 0 0 0 0 0 0 0 0 0 0 0 0 0 0 0 0 0 0 0 0 0 0 0 0 0 0 0 0 0 0 0 0 0 0 0 0 0 0 0 0 0 0 0 
0 0 0 0 0 0 0 0 0 0 0 0 0 0 0 0 0 0 0 0 0 0 0 0 0 0 0 0 0 0 0 0 0 0 0 0 0 0 0 0 0 0 0 0 0 0 0 0 0 0 0 0 0 0 0 0 0 0 0 0 0 0 0 0 0 0 0 0 0 0 0 0 0 0 0 0 0 0 0 0 0 0 0 0 0 0 0 0 0 0 0 0 0 0 0 0 0 0 0 0 0 0 0 0 0 0 0 0 0 0 0 0 0 0 0 0 0 0 0 0 0 0 0 0 0 0 0 0 0 0 0 0 0 0 0 0 0 0 0 0 0 0 0 0 0 0 0 0 0 0 0 0 0 0 0 0 0 0 0 0 0 0 0 0 0 0 0 0 0 0 0 0 0 0 0 0 0 0 0 0 0 0 0 0 0 0 0 0 0 0 0 0 0 0 0 0 0 0 0 212 212 212 212 212 212 212 212 212 212 253 253 253 253 253 0 0 0 0 0 196 196 196 196 196 196 196 196 0 0 202 202 202 202 202 0 0 0 0 0 47 47 47 47 47 47 0 0 0 0 117 117 117 117 117 0 0 0 0 0 97 97 97 97 97 97 97 97 97 97 0 0 0 0 0 0 0 0 0 0 0 0 0 0 0 0 0 0 0 0 0 0 0 0 0 0 0 0 0 0 187 187 187 187 187 187 187 187 187 187 252 252 252 252 252 0 0 0 0 0 151 151 151 151 151 151 151 151 0 0 107 107 107 107 107 0 0 0 0 0 20 20 20 20 20 20 0 0 0 0 214 214 214 214 214 0 0 0 0 0 93 93 93 93 93 93 93 93 93 93 0 0 0 0 0 0 0 0 0 0 0 0 0 0 0 0 0 0 0 0 0 0 0 0 0 0 0 0 0 0 33 33 33 33 33 33 33 33 33 33 15 15 15 15 15 0 0 0 0 0 252 252 252 252 252 252 252 252 0 0 203 203 203 203 203 0 0 0 0 0 62 62 62 62 62 62 0 0 0 0 81 81 81 81 81 0 0 0 0 0 110 110 110 110 110 110 110 110 110 110 0 0 0 0 0 0 0 0 0 0 0 0 0 0 0 0 0 0 0 0 0 0 0 0 0 0 0 0 0 0 0 0 0 0 0 0 0 0 0 0 0 0 0 
