P2
512 1
255
0 0 0 0 0 0 0 0 0 0 0 0 0 0 0 0 0 0 0 0 0 0 0 0 0 0 0 0 0 0 0 0 0 0 0 0 0 0 0 0 0 0 0 0 0 0 0 0 0 0 0 0 0 0 0 0 0 0 0 0 0 0 0 0 0 0 0 0 0 0 0 0 0 0 0 0 0 0 0 0 0 0 0 0 0 0 0 0 0 0 0 0 0 0 0 0 0 0 0 0 0 0 0 0 0 0 0 0 0 0 0 0 0 0 0 0 0 0 0 0 0 0 0 0 0 0 0 0 0 0 0 0 0 0 0 0 0 0 0 0 0 0 0 0 0 0 0 0 0 0 0 0 0 0 0 0 0 0 0 0 0 0 0 0 0 0 0 0 0 0 0 0 0 0 0 0 0 0 0 0 0 0 0 0 0 0 0 0 0 0 0 0 0 0 0 0 0 0 0 255 255 255 255 255 255 255 218 218 218 218 218 0 0 0 218 218 218 218 218 218 218 0 0 0 218 218 0 0 0 255 255 255 255 218 218 218 218 255 255 255 255 255 255 0 218 218 218 218 218 218 218 218 218 218 218 218 0 0 0 255 255 255 255 218 218 218 218 255 255 255 255 255 255 0 218 218 218 218 218 218 218 218 218 218 255 255 255 255 255 255 255 255 255 255 255 0 0 0 0 83 83 83 83 83 83 83 165 165 165 165 165 0 0 0 165 165 165 165 165 165 165 0 0 0 165 165 0 0 0 83 83 83 83 165 165 165 165 83 83 83 83 83 83 0 165 165 165 165 165 165 165 165 165 165 165 165 0 0 0 83 83 83 83 165 165 165 165 83 83 83 83 83 83 0 165 165 165 165 165 165 165 165 165 165 83 83 83 83 83 83 83 83 83 83 83 0 0 0 0 16 16 16 16 16 16 16 32 32 32 32 32 0 0 0 32 32 32 32 32 32 32 0 0 0 32 32 0 0 0 16 16 16 16 32 32 32 32 16 16 16 16 16 16 0 32 32 32 32 32 32 32 32 32 32 32 32 0 0 0 16 16 16 16 32 32 32 32 16 16 16 16 16 16 0 32 32 32 32 32 32 32 32 32 32 16 16 16 16 16 16 16 16 16 16 16 0 0 0 0 0 0 0 0 0 0 0 0 0 0 0 0 0 
